<svg xmlns="http://www.w3.org/2000/svg" width="1280" height="640" viewBox="0 0 1280 640" fill="none">
  <defs>
    <linearGradient id="bg" x1="58" y1="34" x2="1220" y2="610" gradientUnits="userSpaceOnUse">
      <stop offset="0" stop-color="#0D213E"/>
      <stop offset="1" stop-color="#08152C"/>
    </linearGradient>
    <radialGradient id="g1" cx="0" cy="0" r="1" gradientUnits="userSpaceOnUse" gradientTransform="translate(1020 112) rotate(132) scale(340 260)">
      <stop offset="0" stop-color="#4CE8D5" stop-opacity="0.35"/>
      <stop offset="1" stop-color="#4CE8D5" stop-opacity="0"/>
    </radialGradient>
    <radialGradient id="g2" cx="0" cy="0" r="1" gradientUnits="userSpaceOnUse" gradientTransform="translate(212 520) rotate(-18) scale(420 300)">
      <stop offset="0" stop-color="#6FCBFF" stop-opacity="0.27"/>
      <stop offset="1" stop-color="#6FCBFF" stop-opacity="0"/>
    </radialGradient>
    <linearGradient id="line" x1="190" y1="184" x2="534" y2="402" gradientUnits="userSpaceOnUse">
      <stop offset="0" stop-color="#9BF4FF"/>
      <stop offset="1" stop-color="#4BD5F9"/>
    </linearGradient>
  </defs>

  <rect x="26" y="20" width="1228" height="600" rx="34" fill="url(#bg)"/>
  <rect x="26" y="20" width="1228" height="600" rx="34" fill="url(#g1)"/>
  <rect x="26" y="20" width="1228" height="600" rx="34" fill="url(#g2)"/>

  <rect x="70" y="74" width="1140" height="492" rx="26" stroke="rgba(163, 197, 250, 0.28)"/>

  <g opacity="0.52">
    <path d="M70 182H1210" stroke="rgba(160, 188, 236, 0.16)"/>
    <path d="M70 248H1210" stroke="rgba(160, 188, 236, 0.16)"/>
    <path d="M70 314H1210" stroke="rgba(160, 188, 236, 0.16)"/>
    <path d="M70 380H1210" stroke="rgba(160, 188, 236, 0.16)"/>
    <path d="M70 446H1210" stroke="rgba(160, 188, 236, 0.16)"/>
  </g>

  <text x="114" y="148" fill="#FFD87A" font-family="Segoe UI, Arial, sans-serif" font-size="24" font-weight="700" letter-spacing="2">EVENTRA AUTH PLATFORM</text>
  <text x="112" y="236" fill="#EEF5FF" font-family="Segoe UI, Arial, sans-serif" font-size="74" font-weight="800">Secure Go API</text>
  <text x="112" y="310" fill="#D6E6FF" font-family="Segoe UI, Arial, sans-serif" font-size="74" font-weight="800">Premium React Console</text>
  <text x="114" y="372" fill="#A9C2E9" font-family="Segoe UI, Arial, sans-serif" font-size="28" font-weight="500">JWT • Refresh Rotation • Rate Limiting • Audit Signals • CORS Controls</text>

  <g>
    <rect x="760" y="158" width="366" height="300" rx="24" fill="rgba(16, 36, 64, 0.72)" stroke="rgba(147, 183, 243, 0.3)"/>
    <path d="M816 222H1070" stroke="url(#line)" stroke-width="10" stroke-linecap="round"/>
    <path d="M816 278H1026" stroke="url(#line)" stroke-width="10" stroke-linecap="round"/>
    <path d="M816 334H1070" stroke="url(#line)" stroke-width="10" stroke-linecap="round"/>
    <circle cx="1070" cy="278" r="30" fill="#F7CC67"/>
    <path d="M1058 279L1068 289L1087 270" stroke="#173257" stroke-width="7" stroke-linecap="round" stroke-linejoin="round"/>
  </g>
</svg>
